<svg width="195" height="64" viewBox="0 0 195 64" fill="none" xmlns="http://www.w3.org/2000/svg">
<path d="M48.8866 63.1359V46.7493L31.8344 37.2484L17.249 45.4154L48.8866 63.1359Z" fill="url(#paint0_linear_413_216)"/>
<path d="M31.8384 37.2475L48.8905 27.6992L31.8384 18.1932V37.2475Z" fill="#0075BB"/>
<path d="M17.2527 10.0613L0.114258 0.507202V55.0103L17.2527 45.4136V10.0613Z" fill="#0075BB"/>
<path d="M70.9072 28.7292V26.6721H71.5742C71.9068 26.6721 72.1752 26.6331 72.3795 26.5551C72.5839 26.4733 72.7462 26.3546 72.8663 26.1987C72.9905 26.039 73.0947 25.8402 73.1788 25.6026L73.3291 25.211L68.8579 16.5968H71.5502L74.4469 22.4877L76.8687 16.5968H79.525L75.2822 26.2162C75.0778 26.6603 74.8355 27.0734 74.555 27.4552C74.2786 27.837 73.9241 28.1448 73.4914 28.3785C73.0586 28.6123 72.5058 28.7292 71.8327 28.7292H70.9072ZM80.9327 28.5656V16.5968H83.5349V21.5351H88.8174V16.5968H91.4135V28.5656H88.8174V23.6214H83.5349V28.5656H80.9327ZM93.559 16.5968H96.1552V24.1241H96.2573L101.576 16.5968H103.853V28.5656H101.251V21.0325H101.161L95.8125 28.5656H93.559V16.5968ZM106.003 28.5656V16.5968H110.931C111.837 16.5968 112.592 16.7274 113.197 16.9883C113.801 17.2494 114.257 17.6118 114.561 18.0753C114.866 18.5351 115.018 19.065 115.018 19.6649C115.018 20.1325 114.922 20.5436 114.73 20.8981C114.537 21.2487 114.272 21.5371 113.936 21.7631C113.604 21.9851 113.223 22.1429 112.794 22.2363V22.3533C113.263 22.3727 113.702 22.5013 114.111 22.739C114.523 22.9767 114.858 23.3098 115.114 23.7384C115.37 24.163 115.499 24.6695 115.499 25.2578C115.499 25.8928 115.336 26.4598 115.012 26.9584C114.691 27.4532 114.216 27.8447 113.588 28.133C112.959 28.4214 112.183 28.5656 111.262 28.5656H106.003ZM108.606 26.4967H110.727C111.453 26.4967 111.981 26.3624 112.314 26.0935C112.646 25.8208 112.812 25.4585 112.812 25.0065C112.812 24.6753 112.731 24.3831 112.566 24.1298C112.402 23.8766 112.167 23.678 111.863 23.5337C111.562 23.3896 111.203 23.3176 110.787 23.3176H108.606V26.4967ZM108.606 21.6053H110.534C110.891 21.6053 111.208 21.5449 111.484 21.4241C111.764 21.2994 111.985 21.1241 112.145 20.8981C112.309 20.6721 112.392 20.4013 112.392 20.0857C112.392 19.6533 112.234 19.3045 111.917 19.0396C111.604 18.7747 111.16 18.6423 110.582 18.6423H108.606V21.6053ZM117.192 28.5656V16.5968H125.485V18.6832H119.794V21.5351H125.058V23.6214H119.794V26.4792H125.509V28.5656H117.192ZM127.554 28.5656V16.5968H132.41C133.343 16.5968 134.138 16.7702 134.795 17.1169C135.453 17.4598 135.953 17.9371 136.298 18.5487C136.646 19.1566 136.821 19.8578 136.821 20.6526C136.821 21.4475 136.644 22.1487 136.292 22.7565C135.94 23.3643 135.428 23.8377 134.759 24.1766C134.094 24.5156 133.289 24.685 132.343 24.685H129.248V22.6571H131.923C132.423 22.6571 132.836 22.5734 133.161 22.4059C133.49 22.2344 133.733 21.9987 133.895 21.6987C134.058 21.3949 134.14 21.0461 134.14 20.6526C134.14 20.2553 134.058 19.9085 133.895 19.6123C133.733 19.3123 133.49 19.0806 133.161 18.9169C132.833 18.7494 132.416 18.6657 131.911 18.6657H130.156V28.5656H127.554ZM149.37 20.787H146.738C146.691 20.4559 146.592 20.1617 146.444 19.9046C146.296 19.6435 146.105 19.4215 145.873 19.2384C145.641 19.0552 145.372 18.915 145.068 18.8176C144.767 18.7202 144.44 18.6714 144.088 18.6714C143.451 18.6714 142.896 18.8254 142.423 19.1332C141.951 19.437 141.583 19.8812 141.323 20.4656C141.063 21.0461 140.933 21.7513 140.933 22.5812C140.933 23.4344 141.063 24.1513 141.323 24.7318C141.588 25.3123 141.956 25.7506 142.429 26.0468C142.902 26.3428 143.448 26.4909 144.069 26.4909C144.418 26.4909 144.741 26.4461 145.037 26.3565C145.338 26.2669 145.604 26.1364 145.837 25.9649C146.07 25.7896 146.262 25.5772 146.414 25.3279C146.57 25.0785 146.678 24.7942 146.738 24.4746L149.37 24.4864C149.302 25.0357 149.132 25.5656 148.86 26.076C148.591 26.5825 148.229 27.0363 147.771 27.4376C147.319 27.835 146.778 28.1506 146.15 28.3844C145.524 28.6142 144.817 28.7292 144.028 28.7292C142.93 28.7292 141.949 28.4877 141.083 28.0045C140.222 27.5214 139.54 26.8221 139.04 25.9065C138.543 24.9909 138.294 23.8825 138.294 22.5812C138.294 21.276 138.546 20.1657 139.052 19.25C139.557 18.3345 140.242 17.637 141.107 17.1579C141.973 16.6748 142.946 16.4332 144.028 16.4332C144.741 16.4332 145.401 16.5305 146.011 16.7254C146.624 16.9202 147.167 17.2046 147.64 17.5786C148.112 17.9488 148.496 18.4027 148.794 18.9403C149.094 19.4779 149.286 20.0935 149.37 20.787ZM151.236 16.5968H153.833V24.1241H153.935L159.253 16.5968H161.531V28.5656H158.928V21.0325H158.838L153.49 28.5656H151.236V16.5968ZM163.212 18.6832V16.5968H173.32V18.6832H169.552V28.5656H166.98V18.6832H163.212ZM174.985 28.5656V16.5968H183.278V18.6832H177.587V21.5351H182.851V23.6214H177.587V26.4792H183.302V28.5656H174.985ZM184.878 18.6832V16.5968H194.987V18.6832H191.218V28.5656H188.646V18.6832H184.878ZM77.025 46.7033L73.0706 41.6014H72.1813V46.7033H69.5791V34.7345H72.1813V39.515H72.7041L76.7906 34.7345H80.0298L75.2281 40.2865L80.2522 46.7033H77.025ZM92.1767 40.7189C92.1767 42.0241 91.9224 43.1344 91.4135 44.0501C90.9087 44.9656 90.2196 45.6649 89.3462 46.1481C88.4768 46.6273 87.4992 46.8669 86.4135 46.8669C85.3198 46.8669 84.3382 46.6254 83.4688 46.1422C82.5994 45.6591 81.9123 44.9598 81.4075 44.0442C80.9027 43.1287 80.6503 42.0202 80.6503 40.7189C80.6503 39.4137 80.9027 38.3034 81.4075 37.3877C81.9123 36.4722 82.5994 35.7748 83.4688 35.2956C84.3382 34.8125 85.3198 34.571 86.4135 34.571C87.4992 34.571 88.4768 34.8125 89.3462 35.2956C90.2196 35.7748 90.9087 36.4722 91.4135 37.3877C91.9224 38.3034 92.1767 39.4137 92.1767 40.7189ZM89.5385 40.7189C89.5385 39.8735 89.4083 39.1604 89.1479 38.5799C88.8915 37.9994 88.5289 37.5592 88.0601 37.2592C87.5914 36.9592 87.0425 36.8092 86.4135 36.8092C85.7845 36.8092 85.2356 36.9592 84.7669 37.2592C84.2981 37.5592 83.9335 37.9994 83.6732 38.5799C83.4168 39.1604 83.2885 39.8735 83.2885 40.7189C83.2885 41.5643 83.4168 42.2774 83.6732 42.8579C83.9335 43.4384 84.2981 43.8786 84.7669 44.1786C85.2356 44.4786 85.7845 44.6286 86.4135 44.6286C87.0425 44.6286 87.5914 44.4786 88.0601 44.1786C88.5289 43.8786 88.8915 43.4384 89.1479 42.8579C89.4083 42.2774 89.5385 41.5643 89.5385 40.7189ZM104.964 38.9248H102.332C102.283 38.5936 102.185 38.2994 102.037 38.0423C101.889 37.7812 101.698 37.5592 101.466 37.3761C101.234 37.1929 100.965 37.0527 100.661 36.9553C100.36 36.8579 100.034 36.8092 99.6813 36.8092C99.0443 36.8092 98.4893 36.9631 98.0166 37.2709C97.5438 37.5748 97.1773 38.0189 96.9168 38.6033C96.6564 39.1838 96.5262 39.889 96.5262 40.7189C96.5262 41.5721 96.6564 42.289 96.9168 42.8695C97.1812 43.45 97.5498 43.8883 98.0226 44.1845C98.4954 44.4806 99.0423 44.6286 99.6633 44.6286C100.012 44.6286 100.334 44.5838 100.631 44.4942C100.931 44.4046 101.198 44.2741 101.43 44.1027C101.662 43.9274 101.855 43.7149 102.007 43.4656C102.163 43.2163 102.271 42.9319 102.332 42.6124L104.964 42.6241C104.896 43.1735 104.725 43.7033 104.453 44.2137C104.184 44.7202 103.822 45.1741 103.365 45.5753C102.912 45.9728 102.372 46.2884 101.743 46.5221C101.118 46.7519 100.41 46.8669 99.6211 46.8669C98.5234 46.8669 97.5418 46.6254 96.6764 46.1422C95.815 45.6591 95.1339 44.9598 94.6332 44.0442C94.1364 43.1287 93.888 42.0202 93.888 40.7189C93.888 39.4137 94.1404 38.3034 94.6452 37.3877C95.15 36.4722 95.8351 35.7748 96.7004 35.2956C97.5659 34.8125 98.5395 34.571 99.6211 34.571C100.334 34.571 100.995 34.6683 101.604 34.8631C102.217 35.0579 102.76 35.3423 103.233 35.7163C103.706 36.0865 104.09 36.5404 104.387 37.078C104.687 37.6156 104.88 38.2313 104.964 38.9248ZM108.542 39.1585H111.476C112.453 39.1585 113.294 39.3124 113.999 39.6202C114.709 39.9241 115.255 40.3547 115.64 40.9118C116.024 41.4689 116.215 42.1254 116.211 42.8812C116.215 43.6332 116.024 44.2975 115.64 44.874C115.255 45.4468 114.709 45.8949 113.999 46.2181C113.294 46.5415 112.453 46.7033 111.476 46.7033H106.878V34.7345H109.474V44.6695H111.476C111.944 44.6695 112.339 44.5877 112.659 44.4241C112.98 44.2565 113.222 44.0364 113.386 43.7637C113.555 43.487 113.637 43.1851 113.633 42.8579C113.637 42.3826 113.453 41.9812 113.08 41.654C112.711 41.3228 112.177 41.1572 111.476 41.1572H108.542V39.1585ZM119.811 34.7345V46.7033H117.215V34.7345H119.811ZM130.118 34.7345V36.8209H124.553V46.7033H121.951V34.7345H130.118ZM131.785 34.7345H134.381V42.2618H134.483L139.802 34.7345H142.079V46.7033H139.477V39.1703H139.387L134.038 46.7033H131.785V34.7345ZM144.229 46.7033V34.7345H146.831V39.6728H152.114V34.7345H154.71V46.7033H152.114V41.7592H146.831V46.7033H144.229ZM158.976 46.7033H156.189L160.437 34.7345H163.791L168.033 46.7033H165.244L162.161 37.4696H162.066L158.976 46.7033ZM158.802 41.9988H165.389V43.9741H158.802V41.9988Z" fill="#0075BB"/>
<defs>
<linearGradient id="paint0_linear_413_216" x1="48.7139" y1="57.7614" x2="24.0812" y2="40.452" gradientUnits="userSpaceOnUse">
<stop stop-color="#0075BB"/>
<stop offset="1" stop-color="#4D547A"/>
</linearGradient>
</defs>
</svg>
